# xmcd
#
# Track frame offsets:
#	150
#	17632
#	41330
#	59004
#	87646
#	117025
#	144149
#	165834
#	191263
#	214896
#	234408
# 
# Disc length: 3349 seconds
# 
# Revision: 6
# Processed by: cddbd v1.5.1PL0 Copyright (c) Steve Scherf et al.
# Submitted via: Advanced CD Ripper Pro
#
DISCID=870d130b
DTITLE=João Luiz Corrêa - Camperismo IV - CD II
DYEAR=2003
DGENRE=Country
TTITLE0=Na Neguinha
TTITLE1=Viciado em Vanerão
TTITLE2=No Rincão do Risca-Risca
TTITLE3=Sindicato dos Maridos sem Amante
TTITLE4=Alma de Taura
TTITLE5=dfgsdf
TTITLE6=Casinha Branca
TTITLE7=Pealando de todo o Laço
TTITLE8=Chinoca Teimosa
TTITLE9=Xixando
TTITLE10=Mexerico Campeiro
EXTD=
EXTT0=
EXTT1=
EXTT2=
EXTT3=
EXTT4=
EXTT5=
EXTT6=
EXTT7=
EXTT8=
EXTT9=
EXTT10=
PLAYORDER=
